<svg xmlns="http://www.w3.org/2000/svg" width="1440" height="900"><path d="M724,534L578,674L688,720Z" fill="#eb589e" stroke="#eb589e" stroke-width="1.51"/><path d="M724,534L496,565L578,674Z" fill="#ef65a2" stroke="#ef65a2" stroke-width="1.51"/><path d="M578,674L543,881L688,720Z" fill="#de5599" stroke="#de5599" stroke-width="1.51"/><path d="M288,750L543,881L578,674Z" fill="#dd649e" stroke="#dd649e" stroke-width="1.51"/><path d="M496,565L288,750L578,674Z" fill="#eb6ea5" stroke="#eb6ea5" stroke-width="1.51"/><path d="M550,318L374,534L496,565Z" fill="#f780a9" stroke="#f780a9" stroke-width="1.51"/><path d="M688,720L967,526L724,534Z" fill="#ea509c" stroke="#ea509c" stroke-width="1.51"/><path d="M724,534L550,318L496,565Z" fill="#f774a5" stroke="#f774a5" stroke-width="1.51"/><path d="M973,809L967,526L688,720Z" fill="#de3d97" stroke="#de3d97" stroke-width="1.51"/><path d="M936,365L797,329L724,534Z" fill="#f366a1" stroke="#f366a1" stroke-width="1.51"/><path d="M797,329L550,318L724,534Z" fill="#f874a5" stroke="#f874a5" stroke-width="1.51"/><path d="M865,931L973,809L688,720Z" fill="#cf358f" stroke="#cf358f" stroke-width="1.51"/><path d="M543,881L679,985L688,720Z" fill="#d04a92" stroke="#d04a92" stroke-width="1.51"/><path d="M679,985L865,931L688,720Z" fill="#cc3d8f" stroke="#cc3d8f" stroke-width="1.51"/><path d="M967,526L936,365L724,534Z" fill="#ee579e" stroke="#ee579e" stroke-width="1.51"/><path d="M374,534L288,750L496,565Z" fill="#ef78a9" stroke="#ef78a9" stroke-width="1.51"/><path d="M543,881L546,1174L679,985Z" fill="#bc4b92" stroke="#bc4b92" stroke-width="1.51"/><path d="M967,526L1069,498L936,365Z" fill="#e94f9c" stroke="#e94f9c" stroke-width="1.51"/><path d="M973,809L1069,498L967,526Z" fill="#de3998" stroke="#de3998" stroke-width="1.51"/><path d="M550,318L302,401L374,534Z" fill="#fa8cad" stroke="#fa8cad" stroke-width="1.51"/><path d="M660,106L535,218L550,318Z" fill="#fa97b1" stroke="#fa97b1" stroke-width="1.51"/><path d="M660,106L550,318L797,329Z" fill="#f98aad" stroke="#f98aad" stroke-width="1.51"/><path d="M374,534L197,626L288,750Z" fill="#ef7eaa" stroke="#ef7eaa" stroke-width="1.51"/><path d="M535,218L302,401L550,318Z" fill="#fa97b1" stroke="#fa97b1" stroke-width="1.51"/><path d="M302,401L197,626L374,534Z" fill="#f68aac" stroke="#f68aac" stroke-width="1.51"/><path d="M181,787L290,917L288,750Z" fill="#d9729f" stroke="#d9729f" stroke-width="1.51"/><path d="M288,750L290,917L543,881Z" fill="#d5669b" stroke="#d5669b" stroke-width="1.51"/><path d="M865,931L1035,969L973,809Z" fill="#be238a" stroke="#be238a" stroke-width="1.51"/><path d="M973,809L1189,781L1069,498Z" fill="#cf2990" stroke="#cf2990" stroke-width="1.51"/><path d="M962,1079L1035,969L865,931Z" fill="#b22289" stroke="#b22289" stroke-width="1.51"/><path d="M197,626L181,787L288,750Z" fill="#e67ca6" stroke="#e67ca6" stroke-width="1.51"/><path d="M888,103L660,106L797,329Z" fill="#f788ac" stroke="#f788ac" stroke-width="1.51"/><path d="M535,218L304,144L302,401Z" fill="#fba4b7" stroke="#fba4b7" stroke-width="1.51"/><path d="M679,985L745,1136L865,931Z" fill="#b8378c" stroke="#b8378c" stroke-width="1.51"/><path d="M546,1174L745,1136L679,985Z" fill="#b1408d" stroke="#b1408d" stroke-width="1.51"/><path d="M745,1136L962,1079L865,931Z" fill="#b02c89" stroke="#b02c89" stroke-width="1.51"/><path d="M1336,766L1189,781L1332,937Z" fill="#ac037e" stroke="#ac037e" stroke-width="1.51"/><path d="M1035,969L1189,781L973,809Z" fill="#bd1987" stroke="#bd1987" stroke-width="1.51"/><path d="M1069,498L1144,330L936,365Z" fill="#e5569c" stroke="#e5569c" stroke-width="1.51"/><path d="M936,365L888,103L797,329Z" fill="#f277a8" stroke="#f277a8" stroke-width="1.51"/><path d="M1318,468L1144,330L1069,498Z" fill="#d94894" stroke="#d94894" stroke-width="1.51"/><path d="M1035,181L888,103L936,365Z" fill="#ef77a8" stroke="#ef77a8" stroke-width="1.51"/><path d="M320,1163L546,1174L543,881Z" fill="#b55695" stroke="#b55695" stroke-width="1.51"/><path d="M1144,330L1035,181L936,365Z" fill="#e867a2" stroke="#e867a2" stroke-width="1.51"/><path d="M-85,740L165,917L181,787Z" fill="#db7da5" stroke="#db7da5" stroke-width="1.51"/><path d="M181,787L165,917L290,917Z" fill="#d2729e" stroke="#d2729e" stroke-width="1.51"/><path d="M290,917L320,1163L543,881Z" fill="#c16099" stroke="#c16099" stroke-width="1.51"/><path d="M506,30L304,144L535,218Z" fill="#fbabb9" stroke="#fbabb9" stroke-width="1.51"/><path d="M302,401L77,311L197,626Z" fill="#fb99b0" stroke="#fb99b0" stroke-width="1.51"/><path d="M660,106L506,30L535,218Z" fill="#fba2b4" stroke="#fba2b4" stroke-width="1.51"/><path d="M888,103L751,18L660,106Z" fill="#f994af" stroke="#f994af" stroke-width="1.51"/><path d="M846,9L751,18L888,103Z" fill="#f792b0" stroke="#f792b0" stroke-width="1.51"/><path d="M751,18L506,30L660,106Z" fill="#fba1b4" stroke="#fba1b4" stroke-width="1.51"/><path d="M1052,-42L846,9L888,103Z" fill="#f28caf" stroke="#f28caf" stroke-width="1.51"/><path d="M381,-304L284,22L506,30Z" fill="#fdc1c6" stroke="#fdc1c6" stroke-width="1.51"/><path d="M178,1106L320,1163L290,917Z" fill="#b86699" stroke="#b86699" stroke-width="1.51"/><path d="M304,144L77,311L302,401Z" fill="#fbabb8" stroke="#fbabb8" stroke-width="1.51"/><path d="M197,626L-85,740L181,787Z" fill="#e784ab" stroke="#e784ab" stroke-width="1.51"/><path d="M1144,330L1227,136L1035,181Z" fill="#e06ca0" stroke="#e06ca0" stroke-width="1.51"/><path d="M1189,781L1318,468L1069,498Z" fill="#cf318f" stroke="#cf318f" stroke-width="1.51"/><path d="M1318,468L1284,353L1144,330Z" fill="#d44c93" stroke="#d44c93" stroke-width="1.51"/><path d="M1035,181L1052,-42L888,103Z" fill="#ee82ab" stroke="#ee82ab" stroke-width="1.51"/><path d="M1189,781L1336,766L1318,468Z" fill="#c01d88" stroke="#c01d88" stroke-width="1.51"/><path d="M1186,1077L1189,781L1035,969Z" fill="#ab1082" stroke="#ab1082" stroke-width="1.51"/><path d="M9,1063L178,1106L165,917Z" fill="#bd719f" stroke="#bd719f" stroke-width="1.51"/><path d="M165,917L178,1106L290,917Z" fill="#c46d9c" stroke="#c46d9c" stroke-width="1.51"/><path d="M962,1079L1186,1077L1035,969Z" fill="#a41684" stroke="#a41684" stroke-width="1.51"/><path d="M1305,1208L1186,1077L962,1079Z" fill="#930b7d" stroke="#930b7d" stroke-width="1.51"/><path d="M1305,1208L962,1079L745,1136Z" fill="#9d1883" stroke="#9d1883" stroke-width="1.51"/><path d="M77,311L-35,514L197,626Z" fill="#fa9bb5" stroke="#fa9bb5" stroke-width="1.51"/><path d="M304,144L90,143L77,311Z" fill="#fcb9bd" stroke="#fcb9bd" stroke-width="1.51"/><path d="M506,30L284,22L304,144Z" fill="#fcb8bd" stroke="#fcb8bd" stroke-width="1.51"/><path d="M707,-199L506,30L751,18Z" fill="#fca7bb" stroke="#fca7bb" stroke-width="1.51"/><path d="M1186,1077L1332,937L1189,781Z" fill="#a4037e" stroke="#a4037e" stroke-width="1.51"/><path d="M1498,122L1227,136L1284,353Z" fill="#ce649a" stroke="#ce649a" stroke-width="1.51"/><path d="M1284,353L1227,136L1144,330Z" fill="#d8609a" stroke="#d8609a" stroke-width="1.51"/><path d="M284,22L90,143L304,144Z" fill="#fcbebe" stroke="#fcbebe" stroke-width="1.51"/><path d="M77,311L-36,333L-35,514Z" fill="#fcabbe" stroke="#fcabbe" stroke-width="1.51"/><path d="M90,143L-36,333L77,311Z" fill="#fcb8c1" stroke="#fcb8c1" stroke-width="1.51"/><path d="M-181,602L-85,740L-35,514Z" fill="#f396bb" stroke="#f396bb" stroke-width="1.51"/><path d="M-35,514L-85,740L197,626Z" fill="#f18fb4" stroke="#f18fb4" stroke-width="1.51"/><path d="M1227,136L1052,-42L1035,181Z" fill="#e47ba5" stroke="#e47ba5" stroke-width="1.51"/><path d="M846,9L707,-199L751,18Z" fill="#fa9eb8" stroke="#fa9eb8" stroke-width="1.51"/><path d="M178,1106L-299,1072L320,1163Z" fill="#b370a0" stroke="#b370a0" stroke-width="1.51"/><path d="M-126,932L9,1063L165,917Z" fill="#c679a5" stroke="#c679a5" stroke-width="1.51"/><path d="M1443,957L1475,729L1336,766Z" fill="#a1057e" stroke="#a1057e" stroke-width="1.51"/><path d="M1336,766L1475,729L1318,468Z" fill="#b91d88" stroke="#b91d88" stroke-width="1.51"/><path d="M1318,468L1486,498L1284,353Z" fill="#c8408f" stroke="#c8408f" stroke-width="1.51"/><path d="M981,-218L707,-199L846,9Z" fill="#f89ebc" stroke="#f89ebc" stroke-width="1.51"/><path d="M1475,729L1486,498L1318,468Z" fill="#ba2c8b" stroke="#ba2c8b" stroke-width="1.51"/><path d="M-297,384L-181,602L-35,514Z" fill="#fba6c0" stroke="#fba6c0" stroke-width="1.51"/><path d="M-85,740L-126,932L165,917Z" fill="#d67fa9" stroke="#d67fa9" stroke-width="1.51"/><path d="M1463,1174L1443,957L1332,937Z" fill="#870179" stroke="#870179" stroke-width="1.51"/><path d="M1332,937L1443,957L1336,766Z" fill="#9d007c" stroke="#9d007c" stroke-width="1.51"/><path d="M-282,702L-126,932L-85,740Z" fill="#e08bb3" stroke="#e08bb3" stroke-width="1.51"/><path d="M1052,-42L981,-218L846,9Z" fill="#f292b6" stroke="#f292b6" stroke-width="1.51"/><path d="M1227,136L1229,-25L1052,-42Z" fill="#df7da5" stroke="#df7da5" stroke-width="1.51"/><path d="M1427,-38L1229,-25L1227,136Z" fill="#d477a1" stroke="#d477a1" stroke-width="1.51"/><path d="M1186,1077L1305,1208L1332,937Z" fill="#8e0079" stroke="#8e0079" stroke-width="1.51"/><path d="M546,1174L1305,1208L745,1136Z" fill="#a02885" stroke="#a02885" stroke-width="1.51"/><path d="M90,143L-61,103L-36,333Z" fill="#fdc2c6" stroke="#fdc2c6" stroke-width="1.51"/><path d="M-36,333L-297,384L-35,514Z" fill="#fdaec2" stroke="#fdaec2" stroke-width="1.51"/><path d="M67,-78L-61,103L90,143Z" fill="#fdcdc8" stroke="#fdcdc8" stroke-width="1.51"/><path d="M67,-78L90,143L284,22Z" fill="#fcc9c5" stroke="#fcc9c5" stroke-width="1.51"/><path d="M1167,-208L981,-218L1052,-42Z" fill="#ea90b7" stroke="#ea90b7" stroke-width="1.51"/><path d="M209,-311L67,-78L284,22Z" fill="#fdd2cd" stroke="#fdd2cd" stroke-width="1.51"/><path d="M707,-199L495,-311L506,30Z" fill="#fdb7c6" stroke="#fdb7c6" stroke-width="1.51"/><path d="M981,-218L495,-311L707,-199Z" fill="#feadc4" stroke="#feadc4" stroke-width="1.51"/><path d="M-297,384L-282,702L-181,602Z" fill="#f8a3c2" stroke="#f8a3c2" stroke-width="1.51"/><path d="M-181,602L-282,702L-85,740Z" fill="#ee94bb" stroke="#ee94bb" stroke-width="1.51"/><path d="M1486,498L1560,280L1284,353Z" fill="#c14991" stroke="#c14991" stroke-width="1.51"/><path d="M1660,470L1560,280L1486,498Z" fill="#b43f8d" stroke="#b43f8d" stroke-width="1.51"/><path d="M1660,470L1486,498L1475,729Z" fill="#af2a89" stroke="#af2a89" stroke-width="1.51"/><path d="M495,-311L381,-304L506,30Z" fill="#fdc2cc" stroke="#fdc2cc" stroke-width="1.51"/><path d="M981,-218L1167,-208L495,-311Z" fill="#f7a2c1" stroke="#f7a2c1" stroke-width="1.51"/><path d="M1229,-25L1167,-208L1052,-42Z" fill="#e387af" stroke="#e387af" stroke-width="1.51"/><path d="M1369,-200L1167,-208L1229,-25Z" fill="#d984ad" stroke="#d984ad" stroke-width="1.51"/><path d="M1560,280L1498,122L1284,353Z" fill="#c25c97" stroke="#c25c97" stroke-width="1.51"/><path d="M1305,1208L1463,1174L1332,937Z" fill="#810077" stroke="#810077" stroke-width="1.51"/><path d="M1705,805L1660,470L1475,729Z" fill="#a01884" stroke="#a01884" stroke-width="1.51"/><path d="M-52,-159L-43,-62L67,-78Z" fill="#fddad6" stroke="#fddad6" stroke-width="1.51"/><path d="M67,-78L-43,-62L-61,103Z" fill="#fdd4d0" stroke="#fdd4d0" stroke-width="1.51"/><path d="M-295,170L-297,384L-36,333Z" fill="#fec0cc" stroke="#fec0cc" stroke-width="1.51"/><path d="M-295,170L-36,333L-61,103Z" fill="#fdc7cc" stroke="#fdc7cc" stroke-width="1.51"/><path d="M1560,280L1641,188L1498,122Z" fill="#b75e97" stroke="#b75e97" stroke-width="1.51"/><path d="M1705,805L1475,729L1443,957Z" fill="#94027b" stroke="#94027b" stroke-width="1.51"/><path d="M1547,-174L1427,-38L1655,-90Z" fill="#bb78a7" stroke="#bb78a7" stroke-width="1.51"/><path d="M1498,122L1427,-38L1227,136Z" fill="#ca709d" stroke="#ca709d" stroke-width="1.51"/><path d="M-282,702L-285,994L-126,932Z" fill="#d689b2" stroke="#d689b2" stroke-width="1.51"/><path d="M-126,932L-299,1072L9,1063Z" fill="#c07eab" stroke="#c07eab" stroke-width="1.51"/><path d="M9,1063L-299,1072L178,1106Z" fill="#b776a6" stroke="#b776a6" stroke-width="1.51"/><path d="M-299,1072L-285,994L-282,702Z" fill="#cf88b3" stroke="#cf88b3" stroke-width="1.51"/><path d="M495,-311L209,-311L381,-304Z" fill="#ffd0d5" stroke="#ffd0d5" stroke-width="1.51"/><path d="M381,-304L209,-311L284,22Z" fill="#fdcfd0" stroke="#fdcfd0" stroke-width="1.51"/><path d="M1757,898L1705,805L1443,957Z" fill="#840077" stroke="#840077" stroke-width="1.51"/><path d="M209,-311L-52,-159L67,-78Z" fill="#fedbd7" stroke="#fedbd7" stroke-width="1.51"/><path d="M-309,-87L-295,170L-61,103Z" fill="#fed9d4" stroke="#fed9d4" stroke-width="1.51"/><path d="M1660,470L1694,363L1560,280Z" fill="#af458e" stroke="#af458e" stroke-width="1.51"/><path d="M1705,805L1694,363L1660,470Z" fill="#a32a86" stroke="#a32a86" stroke-width="1.51"/><path d="M-309,-87L-61,103L-43,-62Z" fill="#fddad6" stroke="#fddad6" stroke-width="1.51"/><path d="M-285,994L-299,1072L-126,932Z" fill="#c483b0" stroke="#c483b0" stroke-width="1.51"/><path d="M-297,384L-299,1072L-282,702Z" fill="#ea96bd" stroke="#ea96bd" stroke-width="1.51"/><path d="M1694,363L1641,188L1560,280Z" fill="#b05393" stroke="#b05393" stroke-width="1.51"/><path d="M1427,-38L1369,-200L1229,-25Z" fill="#d07da9" stroke="#d07da9" stroke-width="1.51"/><path d="M1167,-208L1732,-247L495,-311Z" fill="#e692b9" stroke="#e692b9" stroke-width="1.51"/><path d="M1547,-174L1369,-200L1427,-38Z" fill="#c57dab" stroke="#c57dab" stroke-width="1.51"/><path d="M1305,1208L1624,1145L1463,1174Z" fill="#6f0074" stroke="#6f0074" stroke-width="1.51"/><path d="M1463,1174L1624,1145L1443,957Z" fill="#750075" stroke="#750075" stroke-width="1.51"/><path d="M1624,1145L1757,898L1443,957Z" fill="#780076" stroke="#780076" stroke-width="1.51"/><path d="M1705,805L1757,898L1694,363Z" fill="#941480" stroke="#941480" stroke-width="1.51"/><path d="M1655,-90L1498,122L1641,188Z" fill="#b56999" stroke="#b56999" stroke-width="1.51"/><path d="M1655,-90L1427,-38L1498,122Z" fill="#bd72a0" stroke="#bd72a0" stroke-width="1.51"/><path d="M-52,-159L-309,-87L-43,-62Z" fill="#fde0dc" stroke="#fde0dc" stroke-width="1.51"/><path d="M-295,170L-309,-87L-297,384Z" fill="#fed3d5" stroke="#fed3d5" stroke-width="1.51"/><path d="M-297,384L-322,-295L-299,1072Z" fill="#ffb9ca" stroke="#ffb9ca" stroke-width="1.51"/><path d="M-322,-295L-309,-87L-52,-159Z" fill="#fee8e5" stroke="#fee8e5" stroke-width="1.51"/><path d="M1732,-247L1641,188L1694,363Z" fill="#ad6497" stroke="#ad6497" stroke-width="1.51"/><path d="M1732,-247L1655,-90L1641,188Z" fill="#af70a0" stroke="#af70a0" stroke-width="1.51"/><path d="M209,-311L-322,-295L-52,-159Z" fill="#fee5e2" stroke="#fee5e2" stroke-width="1.51"/><path d="M-309,-87L-322,-295L-297,384Z" fill="#ffe0dc" stroke="#ffe0dc" stroke-width="1.51"/><path d="M1655,-90L1732,-247L1547,-174Z" fill="#b279a9" stroke="#b279a9" stroke-width="1.51"/><path d="M1547,-174L1732,-247L1369,-200Z" fill="#bc7ead" stroke="#bc7ead" stroke-width="1.51"/><path d="M1369,-200L1732,-247L1167,-208Z" fill="#c983af" stroke="#c983af" stroke-width="1.51"/><path d="M1757,898L1732,-247L1694,363Z" fill="#a6488d" stroke="#a6488d" stroke-width="1.51"/></svg>