<?xml version="1.0" encoding="UTF-8"?>
<svg width="366px" height="476px" viewBox="0 0 366 476" version="1.1" xmlns="http://www.w3.org/2000/svg" xmlns:xlink="http://www.w3.org/1999/xlink">
    <!-- Generator: Sketch 50.2 (55047) - http://www.bohemiancoding.com/sketch -->
    <title>Contact</title>
    <desc>Created with Sketch.</desc>
    <defs></defs>
    <g id="Page-1" stroke="none" stroke-width="1" fill="none" fill-rule="evenodd">
        <g id="Contact" transform="translate(0.000000, -1.000000)" fill="#63ADEF" fill-rule="nonzero">
            <g id="svg4050">
                <g id="layer1" transform="translate(0.000000, 0.662629)">
                    <path d="M36.5714286,0.623085714 C16.4688841,0.623085714 0,17.0930286 0,37.1945143 L0,439.480229 C0,459.583543 16.4688841,476.051657 36.5714286,476.051657 L329.142857,476.051657 C349.245385,476.051657 365.714286,459.583543 365.714286,439.480229 L365.714286,247.480229 L365.714286,183.480229 L365.714286,37.1945143 C365.714286,17.0930286 349.245385,0.623085714 329.142857,0.623085714 L302.357138,0.623085714 L301.714286,0.623085714 L246.857143,0.623085714 L228.571429,0.623085714 L36.5714286,0.623085714 Z M36.5714286,18.9088 L73.1428571,18.9088 L73.1428571,457.765943 L36.5714286,457.765943 C26.2827648,457.765943 18.2857143,449.7696 18.2857143,439.480229 L18.2857143,37.1945143 C18.2857143,26.9069714 26.2827648,18.9088 36.5714286,18.9088 Z M91.4285714,18.9088 L228.571429,18.9088 L237.714286,18.9088 L237.714286,55.4802286 L155.428571,55.4802286 C150.37932,55.4807334 146.286219,59.5738343 146.285714,64.6230857 L146.285714,101.194514 C146.286219,106.243766 150.37932,110.336867 155.428571,110.337371 L237.714286,110.337371 L237.714286,128.623086 L173.714286,128.623086 C168.665034,128.623591 164.571933,132.716691 164.571429,137.765943 L164.571429,174.337371 C164.571933,179.386623 168.665034,183.479724 173.714286,183.480229 L237.714286,183.480229 L237.714286,210.9088 C237.715004,214.2803 239.570968,217.377856 242.543543,218.968707 C245.516119,220.559559 249.122942,220.385557 251.928576,218.51595 L274.285714,203.623077 L296.642853,218.51595 C299.448487,220.385557 303.05531,220.559559 306.027886,218.968707 C309.000461,217.377856 310.856424,214.2803 310.857143,210.9088 L310.857143,18.9088 L329.142857,18.9088 C339.431515,18.9088 347.428571,26.9069714 347.428571,37.1945143 L347.428571,183.480229 L347.428571,247.480229 L347.428571,439.480229 C347.428571,449.7696 339.431515,457.765943 329.142857,457.765943 L91.4285714,457.765943 L91.4285714,18.9088 Z M256,18.9088 L292.571429,18.9088 L292.571429,193.837367 L279.357147,185.015936 C276.286044,182.968894 272.285385,182.968894 269.214281,185.015936 L256,193.837367 L256,175.765943 C256.157342,174.796094 256.157342,173.807225 256,172.837376 L256,139.194514 C256.157342,138.224665 256.157342,137.235796 256,136.265947 L256,102.623086 C256.157343,101.653236 256.157343,100.664365 256,99.6945152 L256,66.0516571 C256.157343,65.0818071 256.157343,64.0929367 256,63.1230866 L256,18.9088 Z M164.571429,73.7659429 L237.714286,73.7659429 L237.714286,92.0516571 L164.571429,92.0516571 L164.571429,73.7659429 Z M182.857143,146.9088 L237.714286,146.9088 L237.714286,165.194514 L182.857143,165.194514 L182.857143,146.9088 Z" id="path4672"></path>
                </g>
            </g>
        </g>
    </g>
</svg>