<?xml version="1.0" encoding="UTF-8"?>
<svg width="762px" height="649px" viewBox="0 0 762 649" version="1.1" xmlns="http://www.w3.org/2000/svg" xmlns:xlink="http://www.w3.org/1999/xlink">
    <!-- Generator: Sketch 50.2 (55047) - http://www.bohemiancoding.com/sketch -->
    <title>Settings</title>
    <desc>Created with Sketch.</desc>
    <defs></defs>
    <g id="Page-1" stroke="none" stroke-width="1" fill="none" fill-rule="evenodd">
        <g id="Settings" transform="translate(-4.000000, -4.000000)" stroke="#63ADEF" stroke-width="17">
            <g>
                <g>
                    <path d="M529.516,548.217263 L532.176632,553.12 L498.888842,586.392842 C497.483166,587.794969 496.693167,589.698793 496.693167,591.684211 C496.693167,593.669629 497.483166,595.573452 498.888842,596.975579 L520.024421,618.111158 C521.426548,619.516834 523.330371,620.306833 525.315789,620.306833 C527.301207,620.306833 529.205031,619.516834 530.607158,618.111158 L563.88,584.808421 L568.782737,587.469053 C574.642105,590.652842 580.830316,593.208842 587.242737,595.122105 L592.578947,596.706526 L592.578947,636.526316 C592.578947,640.653918 595.92503,644 600.052632,644 L629.947368,644 C634.07497,644 637.421053,640.653918 637.421053,636.526316 L637.421053,596.721474 L642.757263,595.137053 C649.184632,593.223789 655.357895,590.652842 661.217263,587.484 L666.12,584.823368 L699.392842,618.111158 C700.794969,619.516834 702.698793,620.306833 704.684211,620.306833 C706.669629,620.306833 708.573452,619.516834 709.975579,618.111158 L731.111158,596.975579 C732.516834,595.573452 733.306833,593.669629 733.306833,591.684211 C733.306833,589.698793 732.516834,587.794969 731.111158,586.392842 L697.808421,553.12 L700.469053,548.217263 C703.652842,542.357895 706.208842,536.169684 708.122105,529.757263 L709.706526,524.421053 L749.526316,524.421053 C753.653918,524.421053 757,521.07497 757,516.947368 L757,487.052632 C757,482.92503 753.653918,479.578947 749.526316,479.578947 L709.721474,479.578947 L708.137053,474.242737 C706.231649,467.841173 703.666887,461.654688 700.484,455.782737 L697.823368,450.88 L731.111158,417.607158 C732.516834,416.205031 733.306833,414.301207 733.306833,412.315789 C733.306833,410.330371 732.516834,408.426548 731.111158,407.024421 L709.975579,385.888842 C708.573452,384.483166 706.669629,383.693167 704.684211,383.693167 C702.698793,383.693167 700.794969,384.483166 699.392842,385.888842 L666.12,419.191579 L661.217263,416.530947 C655.345312,413.34806 649.158827,410.783299 642.757263,408.877895 L637.421053,407.293474 L637.421053,367.473684 C637.421053,363.346082 634.07497,360 629.947368,360 L600.052632,360 C595.92503,360 592.578947,363.346082 592.578947,367.473684 L592.578947,407.278526 L587.242737,408.862947 C580.815368,410.776211 574.642105,413.347158 568.782737,416.516 L563.88,419.176632 L530.607158,385.888842 C529.205031,384.483166 527.301207,383.693167 525.315789,383.693167 C523.330371,383.693167 521.426548,384.483166 520.024421,385.888842 L498.888842,407.024421 C497.483166,408.426548 496.693167,410.330371 496.693167,412.315789 C496.693167,414.301207 497.483166,416.205031 498.888842,417.607158 L532.191579,450.88 L529.530947,455.782737 C526.34806,461.654688 523.783299,467.841173 521.877895,474.242737 L520.293474,479.578947 L480.473684,479.578947 C476.346082,479.578947 473,482.92503 473,487.052632 L473,516.947368 C473,521.07497 476.346082,524.421053 480.473684,524.421053 L520.278526,524.421053 L521.862947,529.757263 C523.776211,536.184632 526.347158,542.357895 529.516,548.217263 Z" id="Combined-Shape"></path>
                    <circle id="Oval-10" cx="618" cy="498" r="48"></circle>
                    <g>
                        <path d="M109.5936,335.1552 L114.1504,343.552 L57.1392,400.5376 C54.7317325,402.938989 53.3787191,406.199622 53.3787191,409.6 C53.3787191,413.000378 54.7317325,416.261011 57.1392,418.6624 L93.3376,454.8608 C95.7389891,457.268268 98.9996221,458.621281 102.4,458.621281 C105.800378,458.621281 109.061011,457.268268 111.4624,454.8608 L168.448,397.824 L176.8448,402.3808 C186.88,407.8336 197.4784,412.2112 208.4608,415.488 L217.6,418.2016 L217.6,486.4 C217.6,493.469245 223.330755,499.2 230.4,499.2 L281.6,499.2 C288.669245,499.2 294.4,493.469245 294.4,486.4 L294.4,418.2272 L303.5392,415.5136 C314.5472,412.2368 325.12,407.8336 335.1552,402.4064 L343.552,397.8496 L400.5376,454.8608 C402.938989,457.268268 406.199622,458.621281 409.6,458.621281 C413.000378,458.621281 416.261011,457.268268 418.6624,454.8608 L454.8608,418.6624 C457.268268,416.261011 458.621281,413.000378 458.621281,409.6 C458.621281,406.199622 457.268268,402.938989 454.8608,400.5376 L397.824,343.552 L402.3808,335.1552 C407.8336,325.12 412.2112,314.5216 415.488,303.5392 L418.2016,294.4 L486.4,294.4 C493.469245,294.4 499.2,288.669245 499.2,281.6 L499.2,230.4 C499.2,223.330755 493.469245,217.6 486.4,217.6 L418.2272,217.6 L415.5136,208.4608 C412.25026,197.496995 407.857654,186.90155 402.4064,176.8448 L397.8496,168.448 L454.8608,111.4624 C457.268268,109.061011 458.621281,105.800378 458.621281,102.4 C458.621281,98.9996221 457.268268,95.7389891 454.8608,93.3376 L418.6624,57.1392 C416.261011,54.7317325 413.000378,53.3787191 409.6,53.3787191 C406.199622,53.3787191 402.938989,54.7317325 400.5376,57.1392 L343.552,114.176 L335.1552,109.6192 C325.09845,104.167946 314.503005,99.77534 303.5392,96.512 L294.4,93.7984 L294.4,25.6 C294.4,18.5307552 288.669245,12.8 281.6,12.8 L230.4,12.8 C223.330755,12.8 217.6,18.5307552 217.6,25.6 L217.6,93.7728 L208.4608,96.4864 C197.4528,99.7632 186.88,104.1664 176.8448,109.5936 L168.448,114.1504 L111.4624,57.1392 C109.061011,54.7317325 105.800378,53.3787191 102.4,53.3787191 C98.9996221,53.3787191 95.7389891,54.7317325 93.3376,57.1392 L57.1392,93.3376 C54.7317325,95.7389891 53.3787191,98.9996221 53.3787191,102.4 C53.3787191,105.800378 54.7317325,109.061011 57.1392,111.4624 L114.176,168.448 L109.6192,176.8448 C104.167946,186.90155 99.77534,197.496995 96.512,208.4608 L93.7984,217.6 L25.6,217.6 C18.5307552,217.6 12.8,223.330755 12.8,230.4 L12.8,281.6 C12.8,288.669245 18.5307552,294.4 25.6,294.4 L93.7728,294.4 L96.4864,303.5392 C99.7632,314.5472 104.1664,325.12 109.5936,335.1552 Z" id="Combined-Shape"></path>
                        <circle id="Oval-10" cx="261.436552" cy="250.563448" r="81.6808945"></circle>
                    </g>
                </g>
            </g>
        </g>
    </g>
</svg>